<?xml version="1.0" encoding="utf-8"?>
<svg viewBox="0 0 1200 300" xmlns="http://www.w3.org/2000/svg" preserveAspectRatio="xMidYMid slice">
  <defs>
    <linearGradient id="g1" x1="0" x2="1">
      <stop offset="0" stop-color="#BC8BFD"/>
      <stop offset="1" stop-color="#4fc3f7"/>
    </linearGradient>

    <filter id="turb">
      <feTurbulence baseFrequency="0.01 0.02" numOctaves="2" seed="4" result="noise"/>
      <feDisplacementMap in="SourceGraphic" in2="noise" scale="6" xChannelSelector="R" yChannelSelector="G"/>
    </filter>

    <style><![CDATA[
      .bg { fill:#06060b; }
      .gridline { stroke:#1b1233; stroke-opacity:0.6; stroke-width:1; }
    ]]></style>
  </defs>

  <rect width="1200" height="300" class="bg"/>

  <g stroke-width="1" opacity="0.9">
    <line x1="0" y1="0" x2="0" y2="300" class="gridline"/>
    <line x1="40" y1="0" x2="40" y2="300" class="gridline"/>
    <line x1="80" y1="0" x2="80" y2="300" class="gridline"/>
    <line x1="120" y1="0" x2="120" y2="300" class="gridline"/>
    <line x1="160" y1="0" x2="160" y2="300" class="gridline"/>
    <line x1="200" y1="0" x2="200" y2="300" class="gridline"/>
    <line x1="240" y1="0" x2="240" y2="300" class="gridline"/>
    <line x1="280" y1="0" x2="280" y2="300" class="gridline"/>
    <line x1="320" y1="0" x2="320" y2="300" class="gridline"/>
    <line x1="360" y1="0" x2="360" y2="300" class="gridline"/>
    <line x1="400" y1="0" x2="400" y2="300" class="gridline"/>
    <line x1="440" y1="0" x2="440" y2="300" class="gridline"/>
    <line x1="480" y1="0" x2="480" y2="300" class="gridline"/>
    <line x1="520" y1="0" x2="520" y2="300" class="gridline"/>
    <line x1="560" y1="0" x2="560" y2="300" class="gridline"/>
    <line x1="600" y1="0" x2="600" y2="300" class="gridline"/>
    <line x1="640" y1="0" x2="640" y2="300" class="gridline"/>
    <line x1="680" y1="0" x2="680" y2="300" class="gridline"/>
    <line x1="720" y1="0" x2="720" y2="300" class="gridline"/>
    <line x1="760" y1="0" x2="760" y2="300" class="gridline"/>
    <line x1="800" y1="0" x2="800" y2="300" class="gridline"/>
    <line x1="840" y1="0" x2="840" y2="300" class="gridline"/>
    <line x1="880" y1="0" x2="880" y2="300" class="gridline"/>
    <line x1="920" y1="0" x2="920" y2="300" class="gridline"/>
    <line x1="960" y1="0" x2="960" y2="300" class="gridline"/>
    <line x1="1000" y1="0" x2="1000" y2="300" class="gridline"/>
    <line x1="1040" y1="0" x2="1040" y2="300" class="gridline"/>
    <line x1="1080" y1="0" x2="1080" y2="300" class="gridline"/>
    <line x1="1120" y1="0" x2="1120" y2="300" class="gridline"/>
    <line x1="1160" y1="0" x2="1160" y2="300" class="gridline"/>
  </g>

  <g filter="url(#turb)">
    <rect x="-80" y="20" width="400" height="40" fill="#BC8BFD" opacity="0.06">
      <animate attributeName="x" values="-200;1200;-200" dur="6s" repeatCount="indefinite"/>
    </rect>
    <rect x="120" y="120" width="320" height="26" fill="#ff6fcf" opacity="0.05">
      <animate attributeName="x" values="120;800;120" dur="5.2s" repeatCount="indefinite"/>
    </rect>
    <rect x="600" y="200" width="360" height="30" fill="#4fc3f7" opacity="0.05">
      <animate attributeName="x" values="600;-400;600" dur="7s" repeatCount="indefinite"/>
    </rect>
  </g>

  <!-- slight scanline -->
  <g stroke="#ffffff" stroke-opacity="0.02">
    <line x1="0" y1="15" x2="1200" y2="15"/>
    <line x1="0" y1="45" x2="1200" y2="45"/>
    <line x1="0" y1="75" x2="1200" y2="75"/>
    <line x1="0" y1="105" x2="1200" y2="105"/>
    <line x1="0" y1="135" x2="1200" y2="135"/>
  </g>
</svg>
